<?xml version="1.0" encoding="UTF-8" standalone="yes"?>
<svg id="Calque_1" data-name="Calque 1" xmlns="http://www.w3.org/2000/svg" width="210mm" height="210mm" viewBox="0 0 595.28 595.28">
  <rect width="595.28" height="595.28" style="stroke-width: 0px;"/>
  <g>
    <polygon points="317.23 176.41 269.14 328.71 254.11 328.71 239.75 286.29 222.34 235.16 205.38 286.29 190.81 328.71 157.72 328.71 104.21 176.41 143.15 176.41 162.3 237.11 174.7 280.42 209.3 176.41 234.96 176.41 270.43 281.07 283.71 237.11 302.21 176.41 317.23 176.41" style="fill: #fff; stroke-width: 0px;"/>
    <polygon points="491.07 328.71 452.11 328.71 432.96 268.02 420.56 224.71 385.97 328.71 360.3 328.71 324.83 224.05 311.55 268.02 293.05 328.71 277.79 328.71 325.86 176.41 341.14 176.41 355.51 218.84 372.92 269.97 389.88 218.84 404.47 176.41 437.54 176.41 491.07 328.71" style="fill: #fff; stroke-width: 0px;"/>
  </g>
  <g>
    <polygon points="212.27 381.62 212.27 391.18 174.51 391.18 174.51 357.37 162.68 391.18 151.94 391.18 147.37 377.67 141.83 361.39 136.42 377.67 131.78 391.18 121.25 391.18 104.2 342.68 116.61 342.68 122.7 362.01 126.65 375.8 137.67 342.68 145.84 342.68 157.14 376 161.36 362.01 167.25 342.68 211.51 342.68 211.51 352.17 185.53 352.17 185.53 362.01 210.12 362.01 210.12 371.15 185.53 371.15 185.53 381.62 212.27 381.62" style="fill: #00fdfd; stroke-width: 0px;"/>
    <path d="M258.4,370.5c1.39,2.1,2.08,4.47,2.08,7.1,0,4.25-1.63,7.58-4.88,9.98-3.26,2.4-7.75,3.6-13.47,3.6h-23.97v-48.5h23.97c5.22,0,9.33,1.16,12.33,3.46,3,2.31,4.5,5.45,4.5,9.42,0,2.36-.54,4.42-1.63,6.2-1.09,1.78-2.6,3.13-4.54,4.05,2.36,1.02,4.23,2.58,5.61,4.68ZM229.3,352.03v9.63h13.03c1.8,0,3.19-.42,4.16-1.25.97-.83,1.45-2.01,1.45-3.53s-.5-2.71-1.49-3.57c-.99-.85-2.37-1.28-4.12-1.28h-13.03ZM247.62,380.16c1.13-.97,1.7-2.31,1.7-4.02s-.57-3.11-1.7-4.05c-1.13-.95-2.71-1.42-4.75-1.42h-13.58v10.95h13.58c2.03,0,3.61-.48,4.75-1.45Z" style="fill: #00fdfd; stroke-width: 0px;"/>
    <path d="M332.66,344.79c2.79,1.41,4.95,3.43,6.48,6.06,1.52,2.63,2.29,5.71,2.29,9.21s-.76,6.58-2.29,9.21c-1.52,2.63-3.68,4.65-6.48,6.06-2.8,1.41-6.06,2.11-9.8,2.11h-11.85v13.72h-11.36v-48.5h23.21c3.74,0,7.01.71,9.8,2.11ZM328.02,365.54c1.41-1.34,2.11-3.14,2.11-5.4s-.7-4.06-2.11-5.4c-1.41-1.34-3.32-2.01-5.72-2.01h-11.36v14.83h11.36c2.4,0,4.31-.67,5.72-2.01Z" style="fill: #00fdfd; stroke-width: 0px;"/>
    <path d="M345.86,342.68h11.36v48.5h-11.36v-48.5Z" style="fill: #00fdfd; stroke-width: 0px;"/>
    <path d="M425.24,340.32c-.19,0-.38,0-.56,0-4.99.07-9.38,1.12-13.19,3.15-3.95,2.1-7,5.07-9.15,8.9-2.14,3.83-3.22,8.29-3.22,13.37s1.08,9.54,3.22,13.37c.35.62.72,1.22,1.12,1.8h-28.72v-38.24h-11.37v48.5h61.87c5.22,0,9.81-1.05,13.75-3.16,3.95-2.1,7-5.06,9.15-8.9,2.15-3.83,3.22-8.29,3.22-13.37s-1.07-9.54-3.22-13.37c-.42-.75-.88-1.47-1.37-2.15h18.11v40.95h11.37v-40.95h14.82v-9.91h-65.83ZM438.16,373.79c-1.22,2.31-2.95,4.1-5.19,5.37-2.24,1.27-4.82,1.9-7.73,1.9-.19,0-.37,0-.56-.02-.58,0-1.14-.05-1.69-.12-2-.24-3.81-.83-5.44-1.76-2.22-1.27-3.94-3.06-5.16-5.37-1.22-2.31-1.84-4.99-1.84-8.04s.62-5.73,1.84-8.04c1.22-2.31,2.94-4.1,5.16-5.37,2.22-1.27,4.78-1.9,7.69-1.9s5.49.63,7.73,1.9c2.24,1.27,3.97,3.06,5.19,5.37,1.23,2.31,1.84,4.99,1.84,8.04s-.61,5.73-1.84,8.04Z" style="fill: #00fdfd; stroke-width: 0px;"/>
  </g>
  <g>
    <g>
      <path d="M309.26,443.67h-14.76l-17.04-19.26v19.26h-11.29v-48.5h11.29v18.98l15.93-18.98h14l-20.44,23.76,22.31,24.73Z" style="fill: #fff; stroke-width: 0px;"/>
      <path d="M430.65,395.17h11.29v48.5h-10.19l-21.96-30,.14,13.09v16.9h-11.29v-48.5h10.18l21.96,30.14-.14-12.96v-17.18Z" style="fill: #fff; stroke-width: 0px;"/>
      <path d="M491.07,414.99v21.62c-2.45,2.63-5.46,4.65-9.04,6.06-3.58,1.41-7.52,2.11-11.81,2.11-5.13,0-9.62-1.04-13.48-3.12-3.86-2.08-6.84-5.03-8.94-8.87-2.1-3.83-3.15-8.29-3.15-13.37s1.11-9.34,3.33-13.2c2.22-3.86,5.32-6.86,9.32-9.01,3.99-2.15,8.58-3.22,13.75-3.22,3.74,0,7.12.65,10.15,1.94,3.02,1.29,5.81,3.26,8.35,5.89l-6.86,6.79c-1.52-1.52-3.31-2.7-5.37-3.53-2.06-.83-4.17-1.25-6.34-1.25-4.67,0-8.35,1.4-11.05,4.19s-4.05,6.59-4.05,11.4c0,3.09.6,5.82,1.8,8.18,1.2,2.36,2.91,4.18,5.13,5.47,2.22,1.29,4.78,1.94,7.69,1.94,4.57,0,8.22-1.18,10.95-3.53v-7.41h-13.16v-9.08h22.79Z" style="fill: #fff; stroke-width: 0px;"/>
      <polygon points="393.92 395.17 393.92 443.67 382.56 443.67 382.56 404.68 368.81 404.68 368.81 443.67 357.45 443.67 357.45 404.68 342.69 404.68 342.69 404.67 321.64 404.67 321.64 414.5 346.24 414.5 346.24 423.65 321.64 423.65 321.64 434.11 348.38 434.11 348.38 443.67 310.62 443.67 310.62 395.17 393.92 395.17" style="fill: #fff; stroke-width: 0px;"/>
    </g>
    <path d="M252.45,426.7c3.51-1.11,6.22-2.98,8.14-5.61,1.92-2.64,2.87-5.8,2.87-9.5,0-3.23-.71-6.09-2.14-8.59-1.43-2.49-3.47-4.42-6.1-5.78s-5.7-2.05-9.21-2.05h-23.63v37.75l-16.82-37.75h-12.12l-17.29,38.53-13.47-38.53h-10.74l-4.56,13.51-5.54,16.29-5.41-16.29-4.63-13.51h-10.54l-17.05,48.5h12.4l6.11-19.32,3.93-13.79,11.03,33.11h8.17l11.29-33.33,4.23,14.01,5.89,19.32h16.55l3.59-8.73h23.91l3.61,8.73h18.82v-16h6.58l12.34,16h13.51l-13.72-16.97ZM191.49,425.17l7.97-19.11,7.84,19.11h-15.81ZM250.3,416.76c-1.29,1.17-3.16,1.76-5.61,1.76h-11.02v-13.64h11.02c2.4,0,4.26.6,5.58,1.8,1.31,1.2,1.97,2.88,1.97,5.05s-.65,3.85-1.94,5.03Z" style="fill: #fff; stroke-width: 0px;"/>
  </g>
  <text/>
  <circle cx="279.18" cy="367.55" r="6.56" style="fill: #fff; stroke-width: 0px;"/>
</svg>